<svg width="1024" height="550" viewBox="-1.07162 -1.07162 70.5244 37.864" xmlns="http://www.w3.org/2000/svg" xmlns:xlink="http://www.w3.org/1999/xlink" id="svg5678" overflow="hidden"><defs id="defs5680"></defs><path d="M5.28375-2.10547e-05 63.1279-2.10547e-05C66.0326-2.10547e-05 68.3811 2.54936 68.3811 5.44886L68.3811 30.3037C68.3811 33.1717 65.909 35.7207 63.1279 35.7207L5.28375 35.7207C2.47212 35.7207 0 33.2994 0 30.3037L0 5.44886C0 2.45336 2.37925-2.10547e-05 5.28375-2.10547e-05ZM7.01325 11.0682 6.08275 16.5409 11.1865 19.5296 12.504 17.3271 9.54062 15.0197 10.2965 11.0682 11.7031 11.0682C11.8941 12.7935 11.5076 14.022 10.5945 14.9471L12.1311 16.1001C13.5382 15.2727 14.5173 13.6782 14.9651 11.0682L20.7989 11.0682 20.363 12.8307 15.1376 12.8821 14.6986 15.1895C15.1376 16.0289 15.6316 16.763 16.5646 16.9725 16.949 17.0774 17.6623 16.763 18.0467 16.0289 18.1562 15.8195 18.2658 15.452 18.321 15.1895L19.7801 15.1895 18.9574 18.5199 22.0305 18.5199 23.8719 11.0682 24.7153 11.0682 25.1855 8.91848 6.96575 8.91848 6.4955 11.0682 7.01325 11.0682ZM58.1833 26.5135C57.6893 28.6689 55.1555 30.4107 52.1581 30.4107 48.7279 30.4107 45.9471 28.1669 45.9471 25.4509 45.9471 22.7346 48.7279 20.4609 52.1581 20.4609 55.1862 20.4609 57.7821 22.2619 58.276 24.5945L54.1049 24.6532C53.8268 24.0626 53.0546 23.5612 52.1581 23.5612 50.9528 23.5612 49.995 24.4176 49.995 25.4211 49.995 26.425 50.9528 27.2814 52.1581 27.2814 52.8073 27.2814 53.4249 27.0156 53.8268 26.6021L58.1833 26.5135ZM12.1709 20.5619 16.1656 20.5619 18.8284 26.0245 19.874 20.5619 23.5201 20.5619 21.2379 30.6011 17.1798 30.6011 14.5804 25.8176 13.7876 30.6011 10.1101 30.6011 12.1709 20.5619ZM35.6077 20.5619 41.2933 20.5619C42.8686 20.5619 45.0626 22.1272 45.0626 23.8394 45.0626 26.7626 43.5486 28.3274 40.9535 28.3274L37.4927 28.3274 36.9673 30.6011 33.5682 30.6011 35.6077 20.5619ZM38.6359 23.7806 38.2956 25.1681 40.2735 25.1681C40.737 25.1681 40.8606 24.9612 40.9224 24.9612 41.1389 24.9612 41.417 24.6072 41.417 24.3415 41.417 23.9871 41.0771 23.7806 40.2431 23.7806L38.6359 23.7806ZM24.6583 20.5619 34.5457 20.5619 33.8354 23.928 30.4675 23.928 28.9839 30.6011 25.7091 30.6011 26.883 23.928 23.9474 23.928 24.6583 20.5619ZM52.363 12.7995 54.5257 12.7995 54.8652 11.0682 53.0564 11.0682 52.363 12.7995ZM54.0732 15.1069 51.4393 15.1069 51.3655 15.2911 52.7924 16.5494 51.3102 18.4901 47.0853 15.7631 47.908 14.1375C49.5545 13.5079 50.1582 12.1967 49.2254 11.1484L52.1486 11.0682 49.0156 11.0682 49.4861 8.91848 54.1758 8.91848 54.9442 6.34036C55.164 5.65223 55.8219 5.53823 56.4806 5.53823 57.6879 5.48048 59.1147 5.48048 60.6515 5.53823 61.3101 5.53823 62.0234 6.45448 62.0234 6.97073L61.8675 8.91848 62.3828 8.91848 61.9125 11.0682 61.4012 11.0682 59.8311 18.4677 57.0869 18.5199 58.5493 11.0682 57.8275 11.0682 56.257 18.4677 53.4036 18.5199 54.0732 15.1069ZM36.8322 11.0682C36.5099 12.8279 35.776 15.1789 36.2901 16.0619 36.7289 16.8487 37.6618 16.9009 38.6493 16.6915 39.1659 16.6419 39.6329 16.3599 40.2806 16.0207L39.7906 18.5199 42.6447 18.4677 44.2144 11.0682 44.9359 11.0682 43.4743 18.5199 46.2181 18.4677 47.7885 11.0682 48.3026 11.0682 48.7721 8.91848 48.2552 8.91848 48.4108 6.97073C48.4108 6.45448 47.6971 5.53823 47.0384 5.53823 45.3369 5.48048 43.9654 5.48048 42.8676 5.53823 42.2096 5.53823 41.5509 5.65223 41.3309 6.34036L40.5626 8.91848 36.754 8.91848 36.2841 11.0682 36.8322 11.0682ZM40.7484 13.6382C39.9224 13.995 39.3708 13.7292 39.5822 13.073L39.9469 11.0682 41.2529 11.0682 40.7484 13.6382ZM57.4136 8.91848 57.5784 8.45998C57.6333 8.34586 57.7431 8.34586 57.9075 8.34586L58.731 8.34586C58.8405 8.34586 59.0052 8.57511 59.0052 8.57511L58.9637 8.91848 57.4136 8.91848ZM43.8005 8.91848 43.9654 8.45998C44.0202 8.34586 44.1297 8.34586 44.2945 8.34586L45.118 8.34586C45.2275 8.34586 45.3923 8.57511 45.3923 8.57511L45.3504 8.91848 43.8005 8.91848ZM35.3629 8.91848 35.5184 6.97073C35.5184 6.45448 34.8047 5.53823 34.1461 5.53823 32.6646 5.42373 31.2377 5.36636 29.9753 5.53823 29.3172 5.59561 28.6586 5.65223 28.4385 6.34036L27.6704 8.91848 25.944 8.91848 25.4739 11.0682 28.5559 11.0682 28.3092 12.2946C24.9069 12.2946 23.3703 14.1304 23.5895 15.9655 23.8638 18.1676 26.4979 19.007 29.9001 18.6402L30.3945 15.913 27.7057 15.913C26.827 15.913 27.1566 15.0219 27.6505 14.8645L30.6141 14.8117 31.3972 11.0682 32.0435 11.0682 30.5823 18.5199 33.4354 18.4677 34.7357 11.0682 35.6814 11.0682 36.1509 8.91848 35.3629 8.91848ZM30.9083 8.91848 31.073 8.45998C31.1279 8.34586 31.2377 8.34586 31.4021 8.34586L32.2256 8.34586C32.3351 8.34586 32.4999 8.57511 32.4999 8.57511L32.4999 8.91848 30.9083 8.91848ZM7.19962 2.70848 61.6139 2.70848C64.6423 2.70848 65.909 4.01498 65.909 6.94698L65.909 28.8057C65.909 31.7059 64.4877 33.0442 61.6139 33.0442L7.19962 33.0442C3.46112 33.0442 2.90475 31.4826 2.90475 28.8057L2.90475 6.94698C2.90475 4.23811 3.89337 2.70848 7.19962 2.70848" id="path4866" fill="#0082C8" fill-rule="evenodd"/></svg>